<svg width="60" height="60" viewBox="0 0 60 60" fill="none" xmlns="http://www.w3.org/2000/svg">
<g id="ex">
<path id="Vector" d="M56.6548 44.8188C54.6914 45.3078 53.477 44.8403 52.3874 43.238L44.6387 32.7387L43.5187 31.285L34.4695 43.2727C33.4356 44.7148 32.351 45.3425 30.4214 44.8321L42.0091 29.5984L31.2209 15.8383C33.0763 15.4848 34.3582 15.6649 35.4967 17.292L43.5339 27.9218L51.6301 17.3498C52.6674 15.9077 53.7823 15.3593 55.6444 15.8912L51.4614 21.3225L45.7941 28.5495C45.1194 29.3754 45.2121 29.9404 45.8328 30.7382L56.6548 44.8188ZM2.69367 29.3441L3.6416 24.7783C6.22226 15.7425 16.7979 11.9878 24.0912 17.5711C28.3535 20.8551 29.4128 25.5001 29.2019 30.7036H5.1765C4.81554 40.0697 11.699 45.7224 20.4749 42.8382C23.5532 41.8256 25.3664 39.4651 26.2738 36.5116C26.7343 35.0315 27.4967 34.8002 28.9169 35.2231C28.1916 38.9167 26.5555 42.0024 23.0977 43.9334C17.9314 46.8242 10.5571 45.8893 6.67767 41.8719C4.36688 39.5411 3.41221 36.5875 2.98378 33.4291C2.91631 32.9072 2.78138 32.4099 2.68018 31.9094C2.68917 31.0548 2.69367 30.2003 2.69367 29.3457V29.3441ZM5.22035 28.7163H26.9316C26.7899 21.9436 22.4838 17.1334 16.5989 17.0921C10.1388 17.0425 5.50035 21.7388 5.22035 28.7163Z" fill="black"/>
</g>
</svg>
