<svg width="60" height="60" viewBox="0 0 60 60" fill="none" xmlns="http://www.w3.org/2000/svg">
<g id="git">
<path id="Vector" d="M4.84755 32.6497C3.38415 31.1863 3.38415 28.8137 4.84755 27.3502L27.3502 4.84755C28.8137 3.38415 31.1863 3.38415 32.6497 4.84755L55.1524 27.3502C56.6158 28.8137 56.6158 31.1863 55.1524 32.6497L32.6497 55.1524C31.1863 56.6158 28.8137 56.6158 27.3502 55.1524L4.84755 32.6497Z" fill="#EE513B"/>
<path id="Vector_2" d="M22.7792 9.49023L20.5005 11.769L26.3859 17.6545C26.1478 18.1652 26.0149 18.7349 26.0149 19.3356C26.0149 21.0411 27.0864 22.4963 28.593 23.0646V37.462C27.0864 38.0303 26.0149 39.4855 26.0149 41.191C26.0149 43.3915 27.7987 45.1754 29.9992 45.1754C32.1997 45.1754 33.9836 43.3915 33.9836 41.191C33.9836 39.6449 33.1029 38.3043 31.8157 37.6439V23.0843L37.4417 28.7103C37.2152 29.2107 37.0892 29.7663 37.0892 30.3513C37.0892 32.5518 38.873 34.3356 41.0735 34.3356C43.274 34.3356 45.0579 32.5518 45.0579 30.3513C45.0579 28.1508 43.274 26.3669 41.0735 26.3669C40.6459 26.3669 40.2341 26.4342 39.8479 26.5589L33.8057 20.5167C33.9214 20.1436 33.9836 19.7468 33.9836 19.3356C33.9836 17.1351 32.1997 15.3512 29.9992 15.3512C29.588 15.3512 29.1915 15.4135 28.8182 15.5292L22.7792 9.49023Z" fill="white"/>
</g>
</svg>
