<svg width="60" height="60" viewBox="0 0 60 60" fill="none" xmlns="http://www.w3.org/2000/svg">
<g id="github" clip-path="url(#clip0_170_3421)">
<g id="Icons">
<g id="Color-">
<path id="Github" fill-rule="evenodd" clip-rule="evenodd" d="M29.9981 0.625C13.4325 0.625 0 14.1088 0 30.7458C0 44.0508 8.59499 55.3398 20.5181 59.323C22.0181 59.5998 22.5656 58.6698 22.5656 57.8716C22.5656 57.1563 22.5393 55.2626 22.5243 52.7496C14.1787 54.5699 12.4181 48.7118 12.4181 48.7118C11.055 45.233 9.08813 44.3069 9.08813 44.3069C6.36376 42.4376 9.29436 42.4752 9.29436 42.4752C12.3037 42.6879 13.8881 45.5794 13.8881 45.5794C16.5656 50.1819 20.91 48.8529 22.62 48.0811C22.8919 46.1347 23.6681 44.8076 24.525 44.0546C17.8631 43.2941 10.86 40.7114 10.86 29.1702C10.86 25.8816 12.0281 23.1935 13.9481 21.087C13.6388 20.3247 12.6094 17.2638 14.2406 13.1168C14.2406 13.1168 16.7606 12.3074 22.4906 16.204C24.885 15.5357 27.45 15.2025 30.0019 15.1894C32.55 15.2025 35.1169 15.5357 37.5131 16.204C43.2394 12.3074 45.7538 13.1168 45.7538 13.1168C47.3907 17.2638 46.3612 20.3247 46.0519 21.087C47.9756 23.1935 49.1363 25.8816 49.1363 29.1702C49.1363 40.7397 42.1219 43.2865 35.4394 44.032C36.5156 44.9619 37.4757 46.7992 37.4757 49.6097C37.4757 53.6362 37.4381 56.8834 37.4381 57.8716C37.4381 58.6773 37.9782 59.6148 39.5007 59.3192C51.4125 55.3285 60 44.047 60 30.7458C60 14.1088 46.5675 0.625 29.9981 0.625Z" fill="#3E75C3"/>
</g>
</g>
</g>
<defs>
<clipPath id="clip0_170_3421">
<rect width="60" height="60" fill="white"/>
</clipPath>
</defs>
</svg>
