<svg width="60" height="60" viewBox="0 0 60 60" fill="none" xmlns="http://www.w3.org/2000/svg">
<g id="mongodb" clip-path="url(#clip0_170_3436)">
<path id="Vector" d="M30 60C46.5685 60 60 46.5685 60 30C60 13.4315 46.5685 0 30 0C13.4315 0 0 13.4315 0 30C0 46.5685 13.4315 60 30 60Z" fill="#13AA52"/>
<path id="Vector_2" d="M38.0186 26.3344C36.1237 17.9713 31.6454 15.2215 31.1631 14.1709C30.6358 13.4297 30.1014 12.1113 30.1014 12.1113C30.0926 12.0891 30.0786 12.0498 30.0622 12.0117C30.0077 12.7529 29.9796 13.0389 29.2788 13.7865C28.1936 14.635 22.626 19.3066 22.1731 28.8082C21.7506 37.6699 28.5745 42.9504 29.4973 43.6236L29.6022 43.698V43.6916C29.6081 43.7361 29.8952 45.801 30.0967 47.9889H30.8198C30.9894 46.4423 31.2437 44.9062 31.5815 43.3875L31.6401 43.3494C32.0529 43.0534 32.4465 42.7315 32.8184 42.3855L32.8606 42.3475C34.8223 40.5352 38.3491 36.3434 38.3145 29.6602C38.3072 28.5453 38.2082 27.433 38.0186 26.3344ZM30.02 38.6203C30.02 38.6203 30.02 26.1914 30.4301 26.1938C30.7501 26.1938 31.1643 42.2256 31.1643 42.2256C30.5948 42.157 30.02 39.5871 30.02 38.6203Z" fill="white"/>
</g>
<defs>
<clipPath id="clip0_170_3436">
<rect width="60" height="60" fill="white"/>
</clipPath>
</defs>
</svg>
