<svg width="60" height="60" viewBox="0 0 60 60" fill="none" xmlns="http://www.w3.org/2000/svg">
<g id="next" clip-path="url(#clip0_170_3376)">
<g id="Group">
<path id="Vector" d="M28.0352 0.0161462C27.9062 0.0278747 27.4956 0.0689244 27.1261 0.0982456C18.6041 0.866461 10.6217 5.46403 5.56598 12.5304C2.75073 16.4595 0.950147 20.9163 0.269795 25.637C0.0293255 27.2849 0 27.7716 0 30.0059C0 32.2401 0.0293255 32.7269 0.269795 34.3747C1.90029 45.6399 9.91789 55.1048 20.7918 58.6116C22.739 59.2391 24.7918 59.6672 27.1261 59.9252C28.0352 60.0249 31.9648 60.0249 32.8739 59.9252C36.9032 59.4795 40.3167 58.4826 43.6833 56.7644C44.1994 56.5005 44.2991 56.4301 44.2287 56.3715C44.1818 56.3363 41.9824 53.3866 39.3431 49.8211L34.5455 43.3412L28.5337 34.4451C25.2258 29.5543 22.5044 25.5549 22.4809 25.5549C22.4575 25.549 22.434 29.5015 22.4223 34.3278C22.4047 42.7782 22.3988 43.1183 22.2933 43.3177C22.1408 43.605 22.0235 43.7223 21.7771 43.8513C21.5894 43.9452 21.4252 43.9628 20.5396 43.9628H19.5249L19.2551 43.7927C19.0792 43.6813 18.9501 43.5347 18.8622 43.3646L18.739 43.1007L18.7507 31.3429L18.7683 19.5793L18.9501 19.3505C19.044 19.2274 19.2434 19.0691 19.3842 18.9928C19.6246 18.8755 19.7185 18.8638 20.7331 18.8638C21.9296 18.8638 22.129 18.9107 22.4399 19.2509C22.5279 19.3447 25.783 24.2472 29.6774 30.1525C33.5718 36.0578 38.8974 44.1211 41.5132 48.0795L46.2639 55.2749L46.5044 55.1166C48.6334 53.7326 50.8856 51.7622 52.6686 49.7097C56.4633 45.3526 58.9091 40.0396 59.7302 34.3747C59.9707 32.7269 60 32.2401 60 30.0059C60 27.7716 59.9707 27.2849 59.7302 25.637C58.0997 14.3718 50.0821 4.90692 39.2082 1.40011C37.2903 0.778498 35.2493 0.350408 32.9619 0.0923814C32.3988 0.0337389 28.522 -0.0307677 28.0352 0.0161462ZM40.3167 18.1601C40.5982 18.3008 40.827 18.5706 40.9091 18.8521C40.956 19.0046 40.9677 22.2651 40.956 29.613L40.9384 40.1569L39.0792 37.3069L37.2141 34.4568V26.7923C37.2141 21.837 37.2375 19.0515 37.2727 18.9166C37.3666 18.5882 37.5718 18.3302 37.8534 18.1777C38.0938 18.0546 38.1818 18.0428 39.1026 18.0428C39.9707 18.0428 40.1232 18.0546 40.3167 18.1601Z" fill="black"/>
</g>
</g>
<defs>
<clipPath id="clip0_170_3376">
<rect width="60" height="60" fill="white"/>
</clipPath>
</defs>
</svg>
