<svg width="60" height="60" viewBox="0 0 60 60" fill="none" xmlns="http://www.w3.org/2000/svg">
<g id="nodejs" clip-path="url(#clip0_170_3427)">
<g id="Group">
<path id="Vector" d="M29.9997 59.8887C29.1744 59.8887 28.4041 59.6686 27.6889 59.2835L20.3713 54.9369C19.2709 54.3317 19.8211 54.1116 20.1512 54.0016C21.6367 53.5064 21.9118 53.3964 23.4524 52.5161C23.6174 52.406 23.8375 52.461 24.0026 52.5711L29.6146 55.9273C29.8346 56.0373 30.1097 56.0373 30.2748 55.9273L52.2275 43.2178C52.4476 43.1077 52.5577 42.8877 52.5577 42.6126V17.2486C52.5577 16.9735 52.4476 16.7534 52.2275 16.6434L30.2748 3.98891C30.0547 3.87887 29.7796 3.87887 29.6146 3.98891L7.66179 16.6434C7.44171 16.7534 7.33167 17.0285 7.33167 17.2486V42.6126C7.33167 42.8326 7.44171 43.1077 7.66179 43.2178L13.6589 46.684C16.9051 48.3346 18.9408 46.4089 18.9408 44.4832V19.4494C18.9408 19.1193 19.2159 18.7891 19.601 18.7891H22.407C22.7371 18.7891 23.0672 19.0642 23.0672 19.4494V44.4832C23.0672 48.8298 20.7014 51.3607 16.5749 51.3607C15.3095 51.3607 14.3191 51.3607 11.5132 49.9852L5.73611 46.684C4.3056 45.8587 3.42529 44.3182 3.42529 42.6676V17.3036C3.42529 15.653 4.3056 14.1125 5.73611 13.2872L27.6889 0.577704C29.0644 -0.192568 30.935 -0.192568 32.3105 0.577704L54.2633 13.2872C55.6938 14.1125 56.5741 15.653 56.5741 17.3036V42.6676C56.5741 44.3182 55.6938 45.8587 54.2633 46.684L32.3105 59.3935C31.5953 59.7236 30.77 59.8887 29.9997 59.8887ZM36.7671 42.4475C27.1387 42.4475 25.158 38.0459 25.158 34.3046C25.158 33.9745 25.4331 33.6444 25.8182 33.6444H28.6792C29.0093 33.6444 29.2844 33.8645 29.2844 34.1946C29.7246 37.1106 30.99 38.5411 36.8221 38.5411C41.4437 38.5411 43.4244 37.4958 43.4244 35.0199C43.4244 33.5894 42.8742 32.544 35.6667 31.8287C29.6696 31.2235 25.9282 29.9031 25.9282 25.1164C25.9282 20.6598 29.6696 18.0189 35.9418 18.0189C42.9843 18.0189 46.4505 20.4397 46.8907 25.7216C46.8907 25.8867 46.8356 26.0517 46.7256 26.2168C46.6156 26.3268 46.4505 26.4368 46.2854 26.4368H43.4244C43.1493 26.4368 42.8742 26.2168 42.8192 25.9417C42.159 22.9156 40.4534 21.9252 35.9418 21.9252C30.88 21.9252 30.2748 23.6859 30.2748 25.0063C30.2748 26.6019 30.99 27.0971 37.8125 27.9774C44.5798 28.8577 47.771 30.1231 47.771 34.8548C47.716 39.6965 43.7545 42.4475 36.7671 42.4475Z" fill="#539E43"/>
</g>
</g>
<defs>
<clipPath id="clip0_170_3427">
<rect width="60" height="60" fill="white"/>
</clipPath>
</defs>
</svg>
