<svg width="60" height="60" viewBox="0 0 60 60" fill="none" xmlns="http://www.w3.org/2000/svg">
<g id="react">
<path id="Vector" d="M35.0229 29.9546C35.0229 27.2651 32.7742 25.0845 30 25.0845C27.2261 25.0845 24.9771 27.2651 24.9771 29.9546C24.9771 32.6445 27.2261 34.8249 30 34.8249C32.7742 34.8249 35.0229 32.6445 35.0229 29.9546Z" fill="#53C1DE"/>
<path id="Vector_2" fill-rule="evenodd" clip-rule="evenodd" d="M46.3132 20.9132C47.3739 16.734 48.7072 8.98402 44.007 6.35655C39.3287 3.74053 33.2408 8.7533 30.0261 11.7622C26.8208 8.78329 20.5618 3.79194 15.8656 6.42776C11.1891 9.05255 12.6312 16.674 13.7154 20.8794C9.35308 22.0807 1.875 24.6682 1.875 29.9548C1.875 35.2264 9.3453 38.0415 13.6818 39.2417C12.5936 43.4704 11.2237 50.9829 15.9061 53.6019C20.6199 56.2372 26.8594 51.3647 30.1039 48.3229C33.3392 51.3495 39.3686 56.2539 44.0479 53.6276C48.7418 50.9931 47.5193 43.347 46.4349 39.1172C50.6387 37.9144 58.125 35.1606 58.125 29.9548C58.125 24.7191 50.6068 22.1106 46.3132 20.9132ZM45.7804 36.8756C45.0684 34.6905 44.1075 32.3668 42.9321 29.9664C44.0541 27.6227 44.9777 25.329 45.6698 23.1579C48.8173 24.0427 55.7222 26.0649 55.7222 29.9548C55.7222 33.8812 49.0961 35.9226 45.7804 36.8756ZM42.8438 51.6112C39.3525 53.5706 34.1664 48.8805 31.7771 46.6517C33.3622 44.9707 34.9463 43.0166 36.4922 40.8467C39.2117 40.6129 41.7806 40.2304 44.1105 39.7082C44.8736 42.7001 46.3504 49.6431 42.8438 51.6112ZM17.1068 51.5833C13.6152 49.6312 15.2111 42.9274 16.0117 39.8124C18.3156 40.3067 20.8661 40.6622 23.592 40.8765C25.1481 42.9997 26.778 44.9514 28.4205 46.6607C26.3912 48.564 20.6147 53.5444 17.1068 51.5833ZM4.27779 29.9548C4.27779 26.0137 11.1414 24.0062 14.3607 23.1236C15.0647 25.3434 15.988 27.6645 17.1023 30.0116C15.9736 32.3936 15.0371 34.7514 14.3266 36.9975C11.2569 36.1455 4.27779 33.8983 4.27779 29.9548ZM17.0694 8.44414C20.5753 6.47655 26.0151 11.2684 28.3423 13.4252C26.7083 15.1266 25.0933 17.0636 23.5506 19.1747C20.9051 19.4124 18.3727 19.7942 16.0445 20.3057C15.1711 16.9138 13.5673 10.4096 17.0694 8.44414ZM38.2112 21.7071C40.0059 21.9266 41.7255 22.2187 43.3401 22.5761C42.8554 24.0825 42.2512 25.6577 41.5397 27.2724C40.5082 25.3749 39.4011 23.5155 38.2112 21.7071ZM30.0268 15.0902C31.1351 16.2543 32.2451 17.5543 33.3371 18.9647C31.1222 18.8631 28.9037 18.8627 26.6888 18.9632C27.7817 17.5659 28.9012 16.2678 30.0268 15.0902ZM18.4809 27.2707C17.7812 25.6616 17.1825 24.0795 16.6935 22.5516C18.2985 22.2034 20.01 21.9187 21.7931 21.7027C20.5999 23.5072 19.4946 25.3659 18.4809 27.2707ZM21.8443 38.3732C20.0023 38.1739 18.2649 37.9037 16.6604 37.5651C17.1571 36.0103 17.769 34.3941 18.4837 32.7502C19.5112 34.6749 20.6334 36.5516 21.8443 38.3732ZM30.0934 44.9841C28.9545 43.7925 27.8184 42.4746 26.709 41.0571C28.9365 41.1418 31.1683 41.142 33.3956 41.0456C32.3003 42.489 31.1942 43.8088 30.0934 44.9841ZM41.5626 32.6666C42.3144 34.3282 42.9482 35.9357 43.4516 37.4642C41.8206 37.8251 40.0597 38.1157 38.2044 38.3316C39.4031 36.4888 40.5279 34.6005 41.5626 32.6666ZM35.1512 38.6139C31.7439 38.85 28.3155 38.8474 24.9071 38.6332C22.9704 35.8903 21.2464 33.0056 19.7582 30.0109C21.2393 27.0223 22.9508 24.1432 24.8783 21.4046C28.2891 21.1547 31.7209 21.1539 35.1317 21.4061C37.0427 24.1446 38.7516 27.0161 40.2669 29.9777C38.7696 32.9647 37.0491 35.8496 35.1512 38.6139ZM42.8068 8.37487C46.3136 10.336 44.7527 17.3011 43.9866 20.3299C41.6529 19.8077 39.1187 19.4192 36.4656 19.1777C34.9198 17.0438 33.3184 15.1035 31.7107 13.424C34.0678 11.2208 39.3339 6.43292 42.8068 8.37487Z" fill="#53C1DE"/>
</g>
</svg>
