<svg width="60" height="60" viewBox="0 0 60 60" fill="none" xmlns="http://www.w3.org/2000/svg">
<g id="redux">
<path id="Vector" d="M40.8503 40.4171C42.9261 40.2058 44.5009 38.4465 44.4293 36.3351C44.3578 34.224 42.5681 32.535 40.4207 32.535H40.2776C38.0584 32.6053 36.3407 34.4351 36.4123 36.6167C36.4839 37.6723 36.9133 38.5871 37.5576 39.2205C35.1238 43.9358 31.4016 47.3841 25.8184 50.2695C22.0245 52.2399 18.0877 52.9438 14.1509 52.4513C10.9297 52.029 8.42439 50.6216 6.84939 48.2989C4.55895 44.8506 4.34428 41.1206 6.27699 37.3909C7.6371 34.7166 9.78427 32.7459 11.1444 31.7606C10.8581 30.8458 10.4285 29.2976 10.2138 28.1717C-0.165385 35.5611 0.908419 45.5544 4.05799 50.2695C6.42004 53.7883 11.216 55.9701 16.513 55.9701C17.9445 55.9701 19.3761 55.8291 20.8078 55.4775C29.9702 53.718 36.9135 48.3694 40.8503 40.4171ZM53.4486 31.6905C48.0084 25.4271 39.9913 21.9788 30.8289 21.9788H29.6839C29.0396 20.712 27.6795 19.8673 26.1763 19.8673H26.0331C23.8142 19.9378 22.0965 21.7674 22.1679 23.9492C22.2396 26.0604 24.0289 27.7494 26.1763 27.7494H26.3194C27.8942 27.6791 29.2543 26.6938 29.8269 25.3566H31.1153C36.5556 25.3566 41.7092 26.9048 46.3622 29.931C49.941 32.2534 52.518 35.2796 53.9496 38.9391C55.1664 41.8948 55.0948 44.7803 53.8063 47.2434C51.8021 50.9732 48.438 53.0141 43.9999 53.0141C41.1366 53.0141 38.4167 52.1696 36.9849 51.5363C36.1976 52.2399 34.7659 53.3659 33.7637 54.0699C36.8419 55.4773 39.9913 56.2515 42.9977 56.2515C49.8694 56.2515 54.9518 52.5214 56.8845 48.7916C58.9601 44.7098 58.8169 37.6723 53.4486 31.6905ZM17.0856 41.6132C17.1572 43.7244 18.9467 45.4133 21.0941 45.4133H21.2374C23.4562 45.3431 25.1741 43.5133 25.1025 41.3318C25.0311 39.2203 23.2414 37.5315 21.0941 37.5315H20.9511C20.8078 37.5315 20.5929 37.5315 20.4501 37.6016C17.5151 32.8162 16.2983 27.6086 16.7278 21.9786C17.0139 17.756 18.4457 14.0964 20.9511 11.0702C23.0267 8.46628 27.0352 7.19955 29.7555 7.12935C37.3429 6.9885 40.5638 16.278 40.7786 20.0079C41.7092 20.2191 43.284 20.7118 44.3578 21.0638C43.4987 9.66304 36.3407 3.75146 29.4692 3.75146C23.0267 3.75146 17.0856 8.32588 14.7233 15.0819C11.4307 24.0898 13.5781 32.7459 17.5865 39.5724C17.2288 40.065 17.0139 40.839 17.0856 41.6132Z" fill="#764ABC"/>
</g>
</svg>
