<svg width="60" height="60" viewBox="0 0 60 60" fill="none" xmlns="http://www.w3.org/2000/svg">
<g id="sass" clip-path="url(#clip0_170_3400)">
<path id="Vector" d="M51 0H9C4.02944 0 0 4.02944 0 9V51C0 55.9706 4.02944 60 9 60H51C55.9706 60 60 55.9706 60 51V9C60 4.02944 55.9706 0 51 0Z" fill="#CC6699"/>
<path id="Vector_2" d="M30.2344 10.3123C18.9844 14.1795 11.7188 22.0311 12.4219 26.7186C13.125 31.4061 20.1563 35.1561 23.3203 37.617C19.2188 39.7264 14.0625 42.8904 14.1797 46.992C14.4141 52.617 20.5078 50.8592 23.0859 49.2186C25.6641 47.5779 28.2422 43.0076 26.6016 38.203C30.2344 37.2655 33.3984 38.4373 34.3359 39.1405C37.9688 41.7186 36.0938 44.6483 34.8047 45.117C33.5156 45.5858 34.3359 45.8201 35.1563 45.5858C35.9766 45.3514 37.7344 44.1795 37.7344 42.1873C37.7344 37.1483 32.3438 34.8045 25.6641 36.5623C21.7969 32.4608 16.5234 30.5858 16.7578 26.1326C16.875 24.492 17.4609 20.2733 27.8906 14.9998C38.3203 9.72639 45.7031 11.8358 44.7656 16.6405C43.3594 23.9061 30.7031 28.828 26.25 24.6092C26.0156 24.1405 25.1953 23.7889 25.6641 25.078C28.0078 30.9373 46.9922 28.242 47.8125 15.8201C48.0469 9.25764 38.5547 7.49983 30.2344 10.3123ZM20.1563 47.8123C17.2266 48.7498 17.3438 46.8748 17.4609 46.1717C17.8125 44.1795 19.4531 41.7186 24.375 39.2576C25.7813 43.7108 22.6172 47.1092 20.1563 47.8123Z" fill="white"/>
</g>
<defs>
<clipPath id="clip0_170_3400">
<rect width="60" height="60" fill="white"/>
</clipPath>
</defs>
</svg>
