<svg width="60" height="60" viewBox="0 0 60 60" fill="none" xmlns="http://www.w3.org/2000/svg">
<g id="tailwind">
<path id="Vector" d="M16.875 25.6875C18.625 18.6875 23 15.1875 30 15.1875C40.5 15.1875 41.8125 23.0625 47.0625 24.375C50.5625 25.25 53.625 23.9375 56.25 20.4375C54.5 27.4375 50.125 30.9375 43.125 30.9375C32.625 30.9375 31.3125 23.0625 26.0625 21.75C22.5625 20.875 19.5 22.1875 16.875 25.6875ZM3.75 41.4375C5.5 34.4375 9.875 30.9375 16.875 30.9375C27.375 30.9375 28.6875 38.8125 33.9375 40.125C37.4375 41 40.5 39.6875 43.125 36.1875C41.375 43.1875 37 46.6875 30 46.6875C19.5 46.6875 18.1875 38.8125 12.9375 37.5C9.4375 36.625 6.375 37.9375 3.75 41.4375Z" fill="#44A8B3"/>
</g>
</svg>
