<svg width="60" height="60" viewBox="0 0 60 60" fill="none" xmlns="http://www.w3.org/2000/svg">
<g id="ts" clip-path="url(#clip0_170_3381)">
<path id="Vector" d="M51 0H9C4.02944 0 0 4.02944 0 9V51C0 55.9706 4.02944 60 9 60H51C55.9706 60 60 55.9706 60 51V9C60 4.02944 55.9706 0 51 0Z" fill="#3178C6"/>
<path id="Vector_2" d="M27.3047 33.281H34.8047V28.4763H13.8281V33.281H21.3281V54.7263H27.3047V33.281ZM37.1484 53.5544C38.0977 54.0466 39.2578 54.4099 40.5469 54.656C41.8359 54.9021 43.2422 55.0192 44.6484 55.0192C46.0547 55.0192 47.3438 54.8903 48.6328 54.6208C49.9219 54.3513 50.9766 53.906 51.9141 53.3317C52.8633 52.7106 53.6719 51.9255 54.1406 50.8708C54.6094 49.8161 54.9727 48.6442 54.9727 47.1208C54.9727 46.0544 54.8086 45.1286 54.4922 44.3083C54.1758 43.488 53.7188 42.7849 53.0859 42.1989C52.4883 41.5778 51.7969 41.0271 50.9766 40.5583C50.1562 40.0896 49.2188 39.5974 48.1641 39.1521C47.3906 38.8356 46.7578 38.531 46.0547 38.2263C45.4453 37.9216 44.918 37.6169 44.5312 37.3122C44.0977 36.9958 43.7695 36.6677 43.5352 36.3278C43.3008 35.9763 43.1836 35.5896 43.1836 35.156C43.1836 34.7575 43.2879 34.3942 43.5 34.0661C43.7121 33.738 44.0039 33.4685 44.3789 33.2341C44.7539 32.9997 45.2227 32.8239 45.7852 32.695C46.3359 32.5661 46.9453 32.5075 47.6602 32.5075C48.1523 32.5075 48.668 32.5438 49.1836 32.6177C49.7227 32.6915 50.2734 32.8052 50.8242 32.9575C51.375 33.1099 51.9141 33.2974 52.4648 33.5317C52.9805 33.7661 53.4609 34.0356 53.8711 34.3403V28.8325C52.9805 28.4927 51.9961 28.2349 50.9414 28.0708C49.8867 27.9067 48.7148 27.8247 47.3086 27.8247C45.9023 27.8247 44.6133 27.9771 43.3242 28.27C42.0352 28.563 40.9805 29.0317 40.043 29.6763C39.0938 30.3091 38.4023 31.0825 37.8164 32.1372C37.2656 33.1216 36.9961 34.2466 36.9961 35.6528C36.9961 37.4106 37.5 38.9341 38.5195 40.106C39.5273 41.395 41.0977 42.3325 43.0898 43.27C43.8984 43.5981 44.6133 43.9263 45.3164 44.2427C46.0195 44.5591 46.6055 44.8872 47.0742 45.2271C47.5781 45.5669 47.9766 45.9419 48.2461 46.3403C48.5391 46.7388 48.6914 47.2075 48.6914 47.7466C48.6914 48.1216 48.6 48.4731 48.4219 48.8013C48.2438 49.1294 47.9648 49.4106 47.5898 49.645C47.2148 49.8794 46.7578 50.0669 46.1836 50.2075C45.6328 50.3364 45.0117 50.4067 44.1914 50.4067C42.9023 50.4067 41.6133 50.1841 40.4414 49.7388C39.1523 49.2935 37.9805 48.6255 37.1484 47.9294V53.5544Z" fill="white"/>
</g>
<defs>
<clipPath id="clip0_170_3381">
<rect width="60" height="60" fill="white"/>
</clipPath>
</defs>
</svg>
