<svg width="15" height="10" viewBox="0 0 15 10" fill="none" xmlns="http://www.w3.org/2000/svg">
<path id="Arrow 2" d="M1.5 4.4C1.16863 4.4 0.9 4.66863 0.9 5C0.9 5.33137 1.16863 5.6 1.5 5.6V4.4ZM13.9243 5.42426C14.1586 5.18995 14.1586 4.81005 13.9243 4.57574L10.1059 0.757359C9.87157 0.523045 9.49167 0.523045 9.25736 0.757359C9.02304 0.991674 9.02304 1.37157 9.25736 1.60589L12.6515 5L9.25736 8.39411C9.02304 8.62843 9.02304 9.00833 9.25736 9.24264C9.49167 9.47696 9.87157 9.47696 10.1059 9.24264L13.9243 5.42426ZM1.5 5.6H13.5V4.4H1.5V5.6Z" fill="white"/>
</svg>
