<svg width="54" height="54" viewBox="0 0 54 54" fill="none" xmlns="http://www.w3.org/2000/svg">
<g id="el:car" clip-path="url(#clip0_157_2609)">
<path id="Vector" d="M16.9811 4.53394C12.6871 4.53394 8.95299 7.47762 7.95047 11.653L6.88346 16.0968C6.50674 17.6658 5.10354 18.772 3.48996 18.772H2.05776C0.921292 18.772 0 19.6933 0 20.8297V21.8171C0 22.4083 0.479231 22.8875 1.07039 22.8875C1.66155 22.8875 2.14079 23.3667 2.14079 23.9579V46.3935C2.14079 48.0905 3.51653 49.4663 5.21359 49.4663H6.11097C7.31242 49.4663 8.28639 48.4923 8.28639 47.2908C8.28639 46.0894 9.26036 45.1154 10.4618 45.1154H43.5382C44.7396 45.1154 45.7136 46.0894 45.7136 47.2908C45.7136 48.4923 46.6876 49.4663 47.889 49.4663H48.7848C50.4809 49.4663 51.8559 48.0913 51.8559 46.3951V23.9595C51.8559 23.3675 52.3359 22.8875 52.928 22.8875C53.52 22.8875 54 22.4075 54 21.8155V20.8297C54 19.6933 53.0787 18.772 51.9422 18.772H50.51C48.8965 18.772 47.4933 17.6658 47.1165 16.0968L46.0495 11.653C45.047 7.47762 41.3128 4.53394 37.0188 4.53394H16.9811ZM11.4811 7.30234H37.997C40.6487 7.30234 42.9546 9.12021 43.5736 11.6986C44.4393 15.305 41.7058 18.7722 37.997 18.7722H16.0016C12.2928 18.7722 9.55935 15.305 10.4251 11.6986L11.4802 7.30304C11.4803 7.30262 11.4807 7.30234 11.4811 7.30234ZM3.91896 29.1373C3.91896 27.7947 5.2565 26.8628 6.51597 27.3279L11.2281 29.0681C11.9857 29.3479 12.4888 30.0699 12.4888 30.8775C12.4888 32.2201 11.1512 33.152 9.89175 32.6868L5.17958 30.9467C4.42203 30.6669 3.91896 29.9448 3.91896 29.1373ZM47.4797 27.3274C48.7393 26.8625 50.0768 27.7945 50.0768 29.1372C50.0768 29.9448 49.5738 30.667 48.8162 30.9468L44.1094 32.6858C42.8491 33.1514 41.5105 32.2189 41.5105 30.8754C41.5105 30.0672 42.0141 29.3446 42.7723 29.0647L47.4797 27.3274ZM18.7125 39.1829C18.7125 38.0473 19.6331 37.1267 20.7686 37.1267H33.225C34.3606 37.1267 35.2812 38.0473 35.2812 39.1829C35.2812 40.3184 34.3606 41.239 33.225 41.239H20.7686C19.6331 41.239 18.7125 40.3184 18.7125 39.1829Z" fill="url(#paint0_linear_157_2609)"/>
</g>
<defs>
<linearGradient id="paint0_linear_157_2609" x1="19.0995" y1="10.5417" x2="25.689" y2="49.6869" gradientUnits="userSpaceOnUse">
<stop offset="0.0001" stop-color="#5379FF"/>
<stop offset="1" stop-color="#2656FF"/>
</linearGradient>
<clipPath id="clip0_157_2609">
<rect width="54" height="54" fill="white"/>
</clipPath>
</defs>
</svg>
