<svg width="57" height="57" viewBox="0 0 57 57" fill="none" xmlns="http://www.w3.org/2000/svg">
<g id="maki:cross">
<path id="Vector" d="M13.8322 8.6261L28.5002 23.2941L43.0922 8.7021C43.4145 8.35902 43.8028 8.08458 44.2338 7.89521C44.6648 7.70585 45.1295 7.60547 45.6002 7.6001C46.6081 7.6001 47.5746 8.00045 48.2872 8.71309C48.9999 9.42573 49.4002 10.3923 49.4002 11.4001C49.4091 11.866 49.3227 12.3288 49.1462 12.76C48.9698 13.1913 48.7071 13.582 48.3742 13.9081L33.5922 28.5001L48.3742 43.2821C49.0005 43.8948 49.3678 44.7245 49.4002 45.6001C49.4002 46.6079 48.9999 47.5745 48.2872 48.2871C47.5746 48.9997 46.6081 49.4001 45.6002 49.4001C45.1159 49.4202 44.6328 49.3394 44.1814 49.1627C43.73 48.9861 43.3203 48.7175 42.9782 48.3741L28.5002 33.7061L13.8702 48.3361C13.5491 48.6677 13.1656 48.9325 12.7416 49.1151C12.3177 49.2977 11.8618 49.3946 11.4002 49.4001C10.3924 49.4001 9.42586 48.9997 8.71322 48.2871C8.00058 47.5745 7.60023 46.6079 7.60023 45.6001C7.59137 45.1342 7.67781 44.6714 7.85424 44.2402C8.03067 43.8089 8.29337 43.4182 8.62623 43.0921L23.4082 28.5001L8.62623 13.7181C7.99993 13.1054 7.63268 12.2757 7.60023 11.4001C7.60023 10.3923 8.00058 9.42573 8.71322 8.71309C9.42586 8.00045 10.3924 7.6001 11.4002 7.6001C12.3122 7.6115 13.1862 7.9801 13.8322 8.6261Z" fill="#406AFF"/>
</g>
</svg>
