<svg width="33" height="36" viewBox="0 0 33 36" fill="none" xmlns="http://www.w3.org/2000/svg">
<g id="mdi:email">
<path id="Vector" d="M26.1125 13.6481L16.1649 19.8653L6.21736 13.6481V11.1612L16.1649 17.3784L26.1125 11.1612M26.1125 8.67432H6.21736C4.83714 8.67432 3.73047 9.78098 3.73047 11.1612V26.0826C3.73047 26.7421 3.99248 27.3747 4.45886 27.8411C4.92524 28.3074 5.5578 28.5694 6.21736 28.5694H26.1125C26.7721 28.5694 27.4046 28.3074 27.871 27.8411C28.3374 27.3747 28.5994 26.7421 28.5994 26.0826V11.1612C28.5994 10.5016 28.3374 9.86909 27.871 9.40271C27.4046 8.93633 26.7721 8.67432 26.1125 8.67432Z" fill="#406AFF"/>
</g>
</svg>
