<svg width="159" height="64" viewBox="0 0 159 64" fill="none" xmlns="http://www.w3.org/2000/svg">
<g id="Emilian Kasemi">
<path d="M24.4507 27.5328H0V0H24.4507V6.94483H7.72561V10.2323H23.8343V17.1361H7.72561V20.5879H24.4507V27.5328Z" fill="#406DFF"/>
<path d="M35.6051 27.5328H27.8795V6.82155H35.112V13.1089H35.5229C35.975 9.65702 37.8653 6.41062 43.0842 6.41062C47.9743 6.41062 50.3167 9.36936 50.7276 13.1089H51.1385C51.5906 9.65702 53.5631 6.41062 58.9463 6.41062C64.2474 6.41062 66.7541 9.7803 66.7541 14.2595V27.5328H59.0285V17.095C59.0285 14.2184 58.2066 13.3144 55.0013 13.3144C51.8371 13.3144 51.1796 14.1773 51.1796 16.8484V27.5328H43.454V17.095C43.454 14.2184 42.6321 13.3144 39.4268 13.3144C36.2626 13.3144 35.6051 14.1773 35.6051 16.8484V27.5328Z" fill="#406DFF"/>
<path d="M78.0119 4.93124H70.2863V0H78.0119V4.93124ZM78.0119 27.5328H70.2863V6.82155H78.0119V27.5328Z" fill="#406DFF"/>
<path d="M89.4379 27.5328H81.7122V0H89.4379V27.5328Z" fill="#406DFF"/>
<path d="M100.864 4.93124H93.1382V0H100.864V4.93124ZM100.864 27.5328H93.1382V6.82155H100.864V27.5328Z" fill="#406DFF"/>
<path d="M111.262 27.9437C106.578 27.9437 103.948 25.8068 103.948 22.2728C103.948 19.3551 105.961 17.2594 110.646 16.8073L119.07 15.9854V15.5745C119.07 13.4787 118.166 13.15 115.413 13.15C112.865 13.15 112.084 13.6431 112.084 15.369V15.5334H104.359V15.4512C104.359 9.94467 108.961 6.41062 115.988 6.41062C123.221 6.41062 126.714 9.94467 126.714 15.7389V27.5328H119.481V23.1768H119.07C118.289 26.0945 115.742 27.9437 111.262 27.9437ZM111.714 21.7797C111.714 22.4372 112.372 22.5604 113.564 22.5604C117.303 22.5604 118.824 22.1084 119.029 20.2592L112.701 20.9989C112.002 21.0811 111.714 21.3276 111.714 21.7797Z" fill="#406DFF"/>
<path d="M137.962 27.5328H130.237V6.82155H137.469V13.1089H137.88C138.332 9.65702 140.592 6.41062 146.14 6.41062C151.729 6.41062 154.359 9.7803 154.359 14.2595V27.5328H146.633V17.095C146.633 14.2184 145.564 13.3144 142.195 13.3144C138.784 13.3144 137.962 14.1773 137.962 16.8484V27.5328Z" fill="#406DFF"/>
<path d="M7.72561 63.0946H0V35.5618H7.72561V45.7942H13.2733L19.9715 35.5618H29.2176L19.6839 49.0817L29.0121 63.0946H19.7661L13.3555 53.3143H7.72561V63.0946Z" fill="#406DFF"/>
<path d="M37.9889 63.5056C33.3042 63.5056 30.6742 61.3687 30.6742 57.8346C30.6742 54.917 32.6878 52.8212 37.3725 52.3692L45.7967 51.5473V51.1364C45.7967 49.0406 44.8926 48.7118 42.1393 48.7118C39.5915 48.7118 38.8107 49.205 38.8107 50.9309V51.0953H31.0851V51.0131C31.0851 45.5065 35.6876 41.9725 42.7146 41.9725C49.9471 41.9725 53.4401 45.5065 53.4401 51.3007V63.0946H46.2076V58.7387H45.7967C45.0159 61.6563 42.4681 63.5056 37.9889 63.5056ZM38.4409 57.3415C38.4409 57.999 39.0984 58.1223 40.2901 58.1223C44.0296 58.1223 45.5501 57.6703 45.7556 55.821L39.4272 56.5607C38.7286 56.6429 38.4409 56.8895 38.4409 57.3415Z" fill="#406DFF"/>
<path d="M68.0993 63.5056C60.7846 63.5056 56.8807 60.6701 56.8807 55.9032V55.7388H64.6063V56.1498C64.6063 57.3004 65.346 57.4237 68.1404 57.4237C70.8115 57.4237 71.2224 57.136 71.2224 56.4374C71.2224 55.7799 70.8937 55.6156 68.9623 55.4101L62.9626 54.7526C58.6889 54.3006 56.3876 52.287 56.3876 48.794C56.3876 45.1367 59.3053 41.9725 67.072 41.9725C74.2634 41.9725 78.0851 44.5614 78.0851 49.657V49.8214H70.3595V49.5748C70.3595 48.5064 69.9485 48.0132 66.8254 48.0132C64.3187 48.0132 63.9899 48.342 63.9899 49.1228C63.9899 49.6981 64.3187 49.9857 66.7432 50.2323L70.8526 50.6843C76.8934 51.3418 78.8248 53.3554 78.8248 56.8484C78.8248 60.7112 74.962 63.5056 68.0993 63.5056Z" fill="#406DFF"/>
<path d="M93.4602 63.5056C86.4332 63.5056 81.502 60.5057 81.502 52.739C81.502 45.9996 86.3921 41.9725 93.2958 41.9725C100.446 41.9725 105.008 45.5476 105.008 52.2048C105.008 52.9034 104.966 53.4376 104.884 54.1773H88.6523C88.7755 56.684 89.8851 57.3826 93.1726 57.3826C96.2957 57.3826 97.1176 56.8484 97.1176 55.6156V55.1635H104.843V55.6567C104.843 60.2592 100.446 63.5056 93.4602 63.5056ZM93.1315 47.89C90.296 47.89 89.1043 48.5064 88.7755 50.2734H97.5285C97.2408 48.5064 96.008 47.89 93.1315 47.89Z" fill="#406DFF"/>
<path d="M116.033 63.0946H108.308V42.3834H115.54V48.6707H115.951C116.403 45.2189 118.293 41.9725 123.512 41.9725C128.402 41.9725 130.745 44.9312 131.156 48.6707H131.567C132.019 45.2189 133.991 41.9725 139.374 41.9725C144.675 41.9725 147.182 45.3421 147.182 49.8214V63.0946H139.457V52.6568C139.457 49.7803 138.635 48.8762 135.429 48.8762C132.265 48.8762 131.608 49.7392 131.608 52.4103V63.0946H123.882V52.6568C123.882 49.7803 123.06 48.8762 119.855 48.8762C116.691 48.8762 116.033 49.7392 116.033 52.4103V63.0946Z" fill="#406DFF"/>
<path d="M158.44 40.4931H150.714V35.5618H158.44V40.4931ZM158.44 63.0946H150.714V42.3834H158.44V63.0946Z" fill="#406DFF"/>
</g>
</svg>
