<svg width="37" height="36" viewBox="0 0 37 36" fill="none" xmlns="http://www.w3.org/2000/svg">
<g id="Frame 55">
<path id="Vector" d="M12.3497 28.9871C12.3497 29.136 12.1785 29.2551 11.9626 29.2551C11.7169 29.2775 11.5457 29.1584 11.5457 28.9871C11.5457 28.8383 11.7169 28.7192 11.9328 28.7192C12.1561 28.6968 12.3497 28.8159 12.3497 28.9871ZM10.0346 28.6522C9.98248 28.801 10.1314 28.9723 10.3547 29.0169C10.5482 29.0914 10.7715 29.0169 10.8162 28.868C10.8609 28.7192 10.7194 28.5479 10.4961 28.481C10.3026 28.4288 10.0867 28.5033 10.0346 28.6522ZM13.3249 28.5256C13.109 28.5777 12.9601 28.7192 12.9824 28.8904C13.0048 29.0393 13.1983 29.136 13.4216 29.0839C13.6375 29.0318 13.7864 28.8904 13.7641 28.7415C13.7417 28.6001 13.5407 28.5033 13.3249 28.5256ZM18.223 0C7.89814 0 0 7.83859 0 18.1635C0 26.4189 5.19595 33.4834 12.6177 35.9697C13.5705 36.1409 13.9055 35.5528 13.9055 35.0689C13.9055 34.6074 13.8832 32.0615 13.8832 30.4983C13.8832 30.4983 8.67232 31.6149 7.57805 28.28C7.57805 28.28 6.72942 26.1137 5.5086 25.5554C5.5086 25.5554 3.80391 24.3867 5.6277 24.4091C5.6277 24.4091 7.48127 24.5579 8.50111 26.3296C10.1314 29.203 12.8633 28.3767 13.9278 27.8854C14.099 26.6944 14.5829 25.8681 15.1189 25.3768C10.9576 24.9152 6.7592 24.3123 6.7592 17.1511C6.7592 15.104 7.32495 14.0767 8.516 12.7666C8.32245 12.2827 7.68971 10.2877 8.70954 7.71204C10.2653 7.22818 13.8459 9.72193 13.8459 9.72193C15.3347 9.30507 16.9352 9.08919 18.5208 9.08919C20.1064 9.08919 21.7069 9.30507 23.1957 9.72193C23.1957 9.72193 26.7763 7.22073 28.3321 7.71204C29.3519 10.2951 28.7192 12.2827 28.5256 12.7666C29.7167 14.0842 30.4462 15.1114 30.4462 17.1511C30.4462 24.3346 26.0616 24.9078 21.9004 25.3768C22.5853 25.9649 23.1659 27.0815 23.1659 28.8308C23.1659 31.3395 23.1436 34.4436 23.1436 35.054C23.1436 35.5379 23.486 36.126 24.4314 35.9548C31.8754 33.4834 36.9225 26.4189 36.9225 18.1635C36.9225 7.83859 28.5479 0 18.223 0ZM7.23562 25.6745C7.13885 25.749 7.16118 25.9202 7.28773 26.0616C7.40683 26.1807 7.57805 26.2328 7.67482 26.1361C7.77159 26.0616 7.74926 25.8904 7.62271 25.749C7.50361 25.6299 7.33239 25.5778 7.23562 25.6745ZM6.43166 25.0716C6.37955 25.1683 6.45399 25.2875 6.60287 25.3619C6.72198 25.4363 6.87086 25.414 6.92297 25.3098C6.97508 25.213 6.90064 25.0939 6.75176 25.0195C6.60287 24.9748 6.48377 24.9971 6.43166 25.0716ZM8.84354 27.7217C8.72443 27.8184 8.76909 28.0418 8.94031 28.1832C9.11152 28.3544 9.3274 28.3767 9.42417 28.2576C9.52094 28.1609 9.47628 27.9375 9.3274 27.7961C9.16363 27.6249 8.94031 27.6026 8.84354 27.7217ZM7.99491 26.6274C7.87581 26.7018 7.87581 26.8954 7.99491 27.0666C8.11402 27.2378 8.31501 27.3122 8.41178 27.2378C8.53088 27.141 8.53088 26.9475 8.41178 26.7763C8.30756 26.605 8.11402 26.5306 7.99491 26.6274Z" fill="black"/>
</g>
</svg>
