<svg width="56" height="56" viewBox="0 0 56 56" fill="none" xmlns="http://www.w3.org/2000/svg">
<g id="hambuger " clip-path="url(#clip0_233_3800)">
<path id="Vector" fill-rule="evenodd" clip-rule="evenodd" d="M0 13.125C0 12.4288 0.276562 11.7611 0.768845 11.2688C1.26113 10.7766 1.92881 10.5 2.625 10.5H53.375C54.0712 10.5 54.7389 10.7766 55.2312 11.2688C55.7234 11.7611 56 12.4288 56 13.125C56 13.8212 55.7234 14.4889 55.2312 14.9812C54.7389 15.4734 54.0712 15.75 53.375 15.75H2.625C1.92881 15.75 1.26113 15.4734 0.768845 14.9812C0.276562 14.4889 0 13.8212 0 13.125ZM0 28C0 27.3038 0.276562 26.6361 0.768845 26.1438C1.26113 25.6516 1.92881 25.375 2.625 25.375H53.375C54.0712 25.375 54.7389 25.6516 55.2312 26.1438C55.7234 26.6361 56 27.3038 56 28C56 28.6962 55.7234 29.3639 55.2312 29.8562C54.7389 30.3484 54.0712 30.625 53.375 30.625H2.625C1.92881 30.625 1.26113 30.3484 0.768845 29.8562C0.276562 29.3639 0 28.6962 0 28ZM2.625 40.25C1.92881 40.25 1.26113 40.5266 0.768845 41.0188C0.276562 41.5111 0 42.1788 0 42.875C0 43.5712 0.276562 44.2389 0.768845 44.7312C1.26113 45.2234 1.92881 45.5 2.625 45.5H53.375C54.0712 45.5 54.7389 45.2234 55.2312 44.7312C55.7234 44.2389 56 43.5712 56 42.875C56 42.1788 55.7234 41.5111 55.2312 41.0188C54.7389 40.5266 54.0712 40.25 53.375 40.25H2.625Z" fill="#406AFF"/>
</g>
<defs>
<clipPath id="clip0_233_3800">
<rect width="56" height="56" fill="white"/>
</clipPath>
</defs>
</svg>
