<svg width="37" height="36" viewBox="0 0 37 36" fill="none" xmlns="http://www.w3.org/2000/svg">
<g id="Frame 52">
<g id="Group">
<path id="Vector" d="M29.8399 8.39218C29.8399 7.19573 28.8702 6.22966 27.6782 6.22966C26.4862 6.22966 25.5156 7.19573 25.5156 8.39218C25.5156 9.58422 26.4862 10.5503 27.6782 10.5503C28.8702 10.5503 29.8399 9.58422 29.8399 8.39218Z" fill="url(#paint0_linear_170_3446)"/>
<path id="Vector_2" d="M32.7202 25.2727C32.6401 27.0278 32.3465 27.9814 32.1028 28.6148C31.7754 29.4545 31.3849 30.055 30.7516 30.6848C30.1253 31.3146 29.5248 31.7042 28.6851 32.028C28.0517 32.2754 27.0945 32.5698 25.3394 32.6534C23.442 32.737 22.8798 32.7549 18.0681 32.7549C13.2609 32.7549 12.6942 32.737 10.7967 32.6534C9.04164 32.5698 8.08891 32.2754 7.45549 32.028C6.61132 31.7042 6.01533 31.3146 5.38551 30.6848C4.75123 30.055 4.36073 29.4545 4.03781 28.6148C3.79403 27.9814 3.49607 27.0278 3.42041 25.2727C3.32794 23.3752 3.31099 22.8041 3.31099 18.0022C3.31099 13.1906 3.32794 12.6239 3.42041 10.7264C3.49607 8.97133 3.79403 8.0186 4.03781 7.37984C4.36073 6.541 4.75123 5.94408 5.38551 5.31427C6.01533 4.68538 6.61132 4.29482 7.45549 3.9675C8.08891 3.71931 9.04164 3.42929 10.7967 3.34569C12.6942 3.26203 13.2609 3.24068 18.0681 3.24068C22.8798 3.24068 23.442 3.26203 25.3394 3.34569C27.0945 3.42929 28.0517 3.71931 28.6851 3.9675C29.5248 4.29482 30.1253 4.68538 30.7516 5.31427C31.3849 5.94408 31.7754 6.541 32.1028 7.37984C32.3465 8.0186 32.6401 8.97133 32.7202 10.7264C32.8082 12.6239 32.8296 13.1906 32.8296 18.0022C32.8296 22.8041 32.8082 23.3752 32.7202 25.2727ZM35.9609 10.5788C35.8728 8.66083 35.5703 7.35049 35.1211 6.20922C34.6639 5.02518 34.051 4.02174 33.0475 3.01831C32.0486 2.01934 31.0451 1.40641 29.8611 0.943859C28.7154 0.49905 27.4094 0.193016 25.4906 0.109417C23.5718 0.01688 22.959 0 18.0681 0C13.1817 0 12.5643 0.01688 10.6455 0.109417C8.73114 0.193016 7.42614 0.49905 6.27506 0.943859C5.09549 1.40641 4.09206 2.01934 3.09309 3.01831C2.08966 4.02174 1.47672 5.02518 1.01504 6.20922C0.570228 7.35049 0.267797 8.66083 0.175259 10.5788C0.0916622 12.4976 0.0703125 13.1114 0.0703125 18.0022C0.0703125 22.8886 0.0916622 23.5015 0.175259 25.4203C0.267797 27.3347 0.570228 28.6441 1.01504 29.7908C1.47672 30.9704 2.08966 31.9783 3.09309 32.9772C4.09206 33.9762 5.09549 34.5936 6.27506 35.0553C7.42614 35.5 8.73114 35.8025 10.6455 35.8906C12.5643 35.9787 13.1817 36 18.0681 36C22.959 36 23.5718 35.9787 25.4906 35.8906C27.4094 35.8025 28.7154 35.5 29.8611 35.0553C31.0451 34.5936 32.0486 33.9762 33.0475 32.9772C34.051 31.9783 34.6639 30.9704 35.1211 29.7908C35.5703 28.6441 35.8728 27.3347 35.9609 25.4203C36.049 23.5015 36.0703 22.8886 36.0703 18.0022C36.0703 13.1114 36.049 12.4976 35.9609 10.5788Z" fill="url(#paint1_linear_170_3446)"/>
<path id="Vector_3" d="M18.0681 23.997C14.7562 23.997 12.0688 21.3141 12.0688 18.0022C12.0688 14.685 14.7562 11.9985 18.0681 11.9985C21.3809 11.9985 24.0718 14.685 24.0718 18.0022C24.0718 21.3141 21.3809 23.997 18.0681 23.997ZM18.0681 8.75338C12.9628 8.75338 8.82812 12.8969 8.82812 18.0022C8.82812 23.103 12.9628 27.2422 18.0681 27.2422C23.1733 27.2422 27.3125 23.103 27.3125 18.0022C27.3125 12.8969 23.1733 8.75338 18.0681 8.75338Z" fill="url(#paint2_linear_170_3446)"/>
</g>
</g>
<defs>
<linearGradient id="paint0_linear_170_3446" x1="0.395127" y1="35.6277" x2="33.072" y2="2.95102" gradientUnits="userSpaceOnUse">
<stop stop-color="#FFD521"/>
<stop offset="0.05" stop-color="#FFD521"/>
<stop offset="0.501119" stop-color="#F50000"/>
<stop offset="0.95" stop-color="#B900B4"/>
<stop offset="0.950079" stop-color="#B900B4"/>
<stop offset="1" stop-color="#B900B4"/>
</linearGradient>
<linearGradient id="paint1_linear_170_3446" x1="0.395028" y1="35.6726" x2="33.0987" y2="2.96894" gradientUnits="userSpaceOnUse">
<stop stop-color="#FFD521"/>
<stop offset="0.05" stop-color="#FFD521"/>
<stop offset="0.501119" stop-color="#F50000"/>
<stop offset="0.95" stop-color="#B900B4"/>
<stop offset="0.950079" stop-color="#B900B4"/>
<stop offset="1" stop-color="#B900B4"/>
</linearGradient>
<linearGradient id="paint2_linear_170_3446" x1="0.403486" y1="35.6735" x2="33.0993" y2="2.97768" gradientUnits="userSpaceOnUse">
<stop stop-color="#FFD521"/>
<stop offset="0.05" stop-color="#FFD521"/>
<stop offset="0.501119" stop-color="#F50000"/>
<stop offset="0.95" stop-color="#B900B4"/>
<stop offset="0.950079" stop-color="#B900B4"/>
<stop offset="1" stop-color="#B900B4"/>
</linearGradient>
</defs>
</svg>
