<svg width="37" height="36" viewBox="0 0 37 36" fill="none" xmlns="http://www.w3.org/2000/svg">
<g id="Frame 53" clip-path="url(#clip0_170_3542)">
<path id="Vector" d="M41.3768 33.929C41.4679 33.93 41.5583 33.9121 41.6422 33.8766C41.7261 33.8411 41.8019 33.7887 41.8648 33.7226C41.9276 33.6565 41.9763 33.5782 42.0077 33.4925C42.0391 33.4068 42.0526 33.3156 42.0474 33.2245C42.0474 32.7248 41.7465 32.486 41.1291 32.486H40.1316V35.1022H40.5068V33.9618H40.9679L40.9784 33.9757L41.6938 35.1022H42.095L41.3253 33.9363L41.3768 33.929ZM40.9429 33.667H40.5079V32.7825H41.0593C41.3441 32.7825 41.6689 32.8292 41.6689 33.2028C41.6689 33.6326 41.3403 33.667 40.9407 33.667M31.5902 30.6505H26.2701V22.3033C26.2701 20.3129 26.2346 17.7505 23.5031 17.7505C20.7323 17.7505 20.3083 19.9192 20.3083 22.1584V30.6499H14.9883V13.4848H20.0955V15.8306H20.167C20.6781 14.955 21.4167 14.2348 22.3041 13.7465C23.1914 13.2582 24.1944 13.0202 25.2061 13.0578C30.5982 13.0578 31.5924 16.6112 31.5924 21.234L31.5902 30.6505ZM8.98546 11.1385C8.37486 11.1386 7.77793 10.9573 7.27016 10.6175C6.7624 10.2777 6.36661 9.79469 6.13283 9.22954C5.89906 8.66438 5.83781 8.04247 5.95683 7.44244C6.07585 6.84242 6.36978 6.29122 6.80147 5.85856C7.23316 5.42591 7.78321 5.13122 8.38207 5.01176C8.98092 4.8923 9.60168 4.95345 10.1659 5.18745C10.73 5.42146 11.2123 5.81783 11.5516 6.32643C11.8909 6.83503 12.0721 7.43302 12.0722 8.04478C12.0723 8.45098 11.9925 8.85321 11.8374 9.22851C11.6823 9.60381 11.455 9.94484 11.1683 10.2321C10.8817 10.5194 10.5414 10.7473 10.1669 10.9028C9.79234 11.0583 9.39089 11.1384 8.98546 11.1385ZM11.6455 30.6505H6.3199V13.4848H11.6455V30.6505ZM34.2424 0.00244993H3.64657C2.95213 -0.00540161 2.28299 0.263288 1.78618 0.749477C1.28937 1.23567 1.00555 1.89958 0.99707 2.59532V33.376C1.00526 34.0721 1.2889 34.7365 1.78569 35.2232C2.28248 35.7099 2.95178 35.9791 3.64657 35.9717H34.2424C34.9386 35.9804 35.6098 35.712 36.1085 35.2253C36.6073 34.7386 36.8928 34.0735 36.9025 33.376V2.5931C36.8925 1.89597 36.6068 1.23131 36.108 0.745134C35.6092 0.258958 34.9382 -0.00896514 34.2424 0.000229053" fill="#0A66C2"/>
</g>
<defs>
<clipPath id="clip0_170_3542">
<rect width="36" height="36" fill="white" transform="translate(0.99707)"/>
</clipPath>
</defs>
</svg>
