<svg width="30" height="31" viewBox="0 0 30 31" fill="none" xmlns="http://www.w3.org/2000/svg">
<g id="ph:phone-fill">
<path id="Vector" d="M27.0311 20.9368C26.8232 22.5164 26.0475 23.9663 24.8487 25.0158C23.65 26.0652 22.1102 26.6424 20.517 26.6396C11.2611 26.6396 3.73048 19.1089 3.73048 9.85305C3.72762 8.25983 4.30482 6.72006 5.35426 5.52131C6.40371 4.32255 7.85363 3.54681 9.43323 3.33895C9.83267 3.29018 10.2372 3.37189 10.5864 3.57191C10.9355 3.77192 11.2107 4.0795 11.3707 4.44872L13.8327 9.94514V9.95913C13.9552 10.2418 14.0058 10.5503 13.98 10.8573C13.9541 11.1643 13.8527 11.46 13.6847 11.7182C13.6637 11.7497 13.6415 11.7788 13.6182 11.808L11.1912 14.685C12.0643 16.4592 13.9201 18.2988 15.7177 19.1742L18.5551 16.76C18.5829 16.7366 18.6121 16.7148 18.6425 16.6947C18.9005 16.5227 19.1973 16.4176 19.506 16.3891C19.8148 16.3606 20.1258 16.4096 20.4109 16.5315L20.4261 16.5385L25.9178 18.9994C26.2877 19.1588 26.596 19.4337 26.7967 19.7829C26.9974 20.1322 27.0796 20.537 27.0311 20.9368Z" fill="#406AFF"/>
</g>
</svg>
