<svg width="34" height="34" viewBox="0 0 34 34" fill="none" xmlns="http://www.w3.org/2000/svg">
<g id="Sound-on">
<path id="Vector" d="M19.8243 2.41388C19.9989 2.51257 20.1442 2.65585 20.2454 2.82908C20.3465 3.00231 20.3999 3.19928 20.4 3.39988V30.5999C20.4 30.8004 20.3469 30.9973 20.2459 31.1706C20.145 31.3439 19.9999 31.4873 19.8254 31.5861C19.651 31.685 19.4534 31.7358 19.2529 31.7334C19.0524 31.7309 18.8561 31.6753 18.6841 31.5723L7.62053 24.9332H3.4C2.49826 24.9332 1.63346 24.575 0.995837 23.9374C0.358213 23.2997 0 22.4349 0 21.5332L0 12.4597C0.000600896 11.5584 0.359079 10.6942 0.996638 10.057C1.6342 9.41991 2.49866 9.06201 3.4 9.06201H7.62053L18.6819 2.42748C18.854 2.32424 19.0505 2.26858 19.2512 2.26619C19.4519 2.2638 19.6497 2.31477 19.8243 2.41388ZM31.4024 9.39294L30.6 8.59281L28.9975 10.1953L29.7931 10.9932L29.7999 10.9977L29.8452 11.0476C30.1863 11.4647 30.4798 11.9186 30.7201 12.4008C31.2188 13.3959 31.7333 14.9213 31.7333 16.9908C31.7333 19.0603 31.2165 20.5857 30.7201 21.5808C30.529 21.9673 30.3037 22.336 30.0469 22.6824C29.9682 22.7865 29.885 22.887 29.7976 22.9839L29.7931 22.9907L28.9975 23.784L30.6 25.3888L31.4024 24.5887L31.4047 24.5841L31.4092 24.5796L31.4205 24.5683L31.4523 24.5365L31.5497 24.4277C31.6291 24.3371 31.7356 24.2079 31.8603 24.0424C32.1096 23.7115 32.4292 23.2264 32.7465 22.594C33.3812 21.3247 34 19.4524 34 16.9908C34 14.5292 33.3835 12.6592 32.7465 11.3876C32.4957 10.8794 32.1998 10.3947 31.8625 9.93921C31.7339 9.76866 31.597 9.60451 31.4523 9.44734L31.4205 9.41334L31.4092 9.40201L31.4047 9.39748C31.4047 9.39521 31.4001 9.39294 30.6 10.1953L31.4024 9.39294Z" fill="#2A1E18"/>
</g>
</svg>
