<svg width="34" height="34" viewBox="0 0 34 34" fill="none" xmlns="http://www.w3.org/2000/svg">
<g id="teenyicons:sound-off-solid">
<path id="Vector" d="M20.4 3.40017C20.4 3.19965 20.3469 3.00271 20.2459 2.82944C20.145 2.65618 19.9999 2.51279 19.8254 2.41393C19.651 2.31506 19.4534 2.26425 19.2529 2.26668C19.0524 2.26912 18.8561 2.3247 18.6841 2.42777L7.62053 9.0623H3.4C1.52093 9.0623 0 10.581 0 12.4623V21.5335C0 23.4126 1.51867 24.9335 3.4 24.9335H7.62053L18.6819 31.5726C18.8539 31.6762 19.0504 31.7323 19.2513 31.735C19.4521 31.7377 19.6501 31.687 19.8249 31.5881C19.9997 31.4892 20.1451 31.3455 20.2461 31.172C20.3472 30.9984 20.4003 30.801 20.4 30.6002V3.40017ZM29.9359 16.9911L33.1409 20.1939L31.5384 21.7964L28.3333 18.5936L25.1283 21.7964L23.5257 20.1939L26.7308 16.9911L23.5257 13.7883L25.1283 12.1858L28.3333 15.3886L31.5407 12.1858L33.1409 13.7883L29.9359 16.9911Z" fill="#2A1E18"/>
</g>
</svg>
