<svg width="46" height="36" viewBox="0 0 46 36" fill="none" xmlns="http://www.w3.org/2000/svg">
<g id="Frame 54">
<path id="Vector" d="M16.6926 32C29.5235 32 36.5401 21.6134 36.5401 12.6065C36.5401 12.3115 36.534 12.0178 36.5204 11.7254C37.8856 10.7602 39.0639 9.56499 40 8.19587C38.7501 8.7388 37.4051 9.10424 35.9942 9.26901C37.4343 8.42508 38.54 7.0903 39.0616 5.499C37.6922 6.29278 36.1942 6.85232 34.6321 7.15351C33.3591 5.82865 31.547 5 29.5402 5C25.688 5 22.5642 8.05251 22.5642 11.8152C22.5642 12.3501 22.6254 12.8703 22.7451 13.3693C16.9475 13.0843 11.8066 10.372 8.36605 6.24783C7.74638 7.28794 7.42042 8.47017 7.42148 9.67369C7.42148 12.0385 8.65299 14.1261 10.5257 15.3474C9.41798 15.3144 8.33456 15.022 7.36649 14.4949C7.36546 14.5235 7.36546 14.5514 7.36546 14.5819C7.36546 17.8829 9.76996 20.639 12.9618 21.2635C12.3623 21.4231 11.7437 21.5038 11.1224 21.5035C10.6824 21.5032 10.2434 21.462 9.81137 21.3805C10.6995 24.0887 13.2746 26.0595 16.3278 26.1146C13.9403 27.9431 10.9327 29.0322 7.66392 29.0322C7.10156 29.0322 6.54605 29.001 6 28.9379C9.08723 30.8715 12.753 31.9997 16.693 31.9997" fill="#1DA1F2"/>
</g>
</svg>
