<svg width="211" height="51" viewBox="0 0 211 51" fill="none" xmlns="http://www.w3.org/2000/svg">
<path id="Vector 21" d="M209.939 2C197.71 12.5231 194.395 23.3713 178.706 22.6234C164.538 21.948 149.126 14.7304 135.949 9.47094C119.634 2.95925 87.6095 -2.13 78.1296 18.5983C70.7687 34.6932 81.8016 53.9395 99.1645 48.7015C105.858 46.6821 109.317 37.0968 106.352 30.4468C103.15 23.2643 93.5765 19.8018 86.9558 18.1447C69.1748 13.6945 57.3288 31.5608 41.2392 34.6987C26.2072 37.6303 15.0447 30.4075 3.66183 20.6392C2.68681 19.8025 3.18619 25.3695 3.18619 26.7619C3.18619 31.8662 2.2348 29.6008 2.2348 25.7414C2.2348 23.2594 1.0159 17.9821 4.1375 19.3919C6.38963 20.4091 11.1235 20.6392 13.6508 20.6392" stroke="#4F5464" stroke-width="2.11463" stroke-linecap="round"/>
</svg>
